<svg width="18" height="18" viewBox="0 0 18 18" fill="none" xmlns="http://www.w3.org/2000/svg">
<g clip-path="url(#clip0_128867_5821)">
<path d="M9.65274 11.3032L7.74774 9.42073L7.77024 9.39823C9.07524 7.94323 10.0052 6.27073 10.5527 4.50073H12.7502V3.00073H7.50024V1.50073H6.00024V3.00073H0.750244V4.49323H9.12774C8.62524 5.94073 7.83024 7.31323 6.75024 8.51323C6.05274 7.74073 5.47524 6.89323 5.01774 6.00073H3.51774C4.06524 7.22323 4.81524 8.37823 5.75274 9.42073L1.93524 13.1857L3.00024 14.2507L6.75024 10.5007L9.08274 12.8332L9.65274 11.3032ZM13.8752 7.50073H12.3752L9.00024 16.5007H10.5002L11.3402 14.2507H14.9027L15.7502 16.5007H17.2502L13.8752 7.50073ZM11.9102 12.7507L13.1252 9.50323L14.3402 12.7507H11.9102Z" fill="black"/>
</g>
<defs>
<clipPath id="clip0_128867_5821">
<rect width="18" height="18" fill="white"/>
</clipPath>
</defs>
</svg>
