<svg width="24" height="24" viewBox="0 0 24 24" fill="none" xmlns="http://www.w3.org/2000/svg">
<path d="M21.8836 10.1366H12.2059V14.1142H17.7345C17.4961 15.3999 16.7729 16.4874 15.6827 17.216C14.7613 17.8321 13.5854 18.1964 12.2032 18.1964C9.52734 18.1964 7.26395 16.3883 6.45502 13.9589C6.25145 13.3428 6.13359 12.6839 6.13359 12.0062C6.13359 11.3285 6.25145 10.6696 6.45502 10.0535C7.26663 7.62673 9.53002 5.8187 12.2059 5.8187C13.714 5.8187 15.0666 6.33834 16.1327 7.35619L19.0791 4.40709C17.2979 2.74637 14.9756 1.72852 12.2059 1.72852C8.19074 1.72852 4.71663 4.03209 3.02645 7.39102C2.33002 8.77852 1.93359 10.3482 1.93359 12.0089C1.93359 13.6696 2.33002 15.2366 3.02645 16.6241C4.71663 19.983 8.19074 22.2866 12.2059 22.2866C14.9809 22.2866 17.3059 21.3651 19.0041 19.7955C20.9461 18.0062 22.0684 15.3705 22.0684 12.2392C22.0684 11.5107 22.0041 10.8116 21.8836 10.1366Z" fill="black"/>
</svg>
